{
	"asset":{
		"generator":"Khronos glTF Blender I/O v3.6.27",
		"version":"2.0"
	},
	"extensionsUsed":[
		"KHR_materials_clearcoat",
		"KHR_materials_specular",
		"KHR_materials_ior"
	],
	"scene":0,
	"scenes":[
		{
			"name":"Scene",
			"nodes":[
				0
			]
		}
	],
	"nodes":[
		{
			"mesh":0,
			"name":"Heart2",
			"translation":[
				0.35749706625938416,
				2.1331965923309326,
				-0.2148577868938446
			]
		}
	],
	"materials":[
		{
			"doubleSided":true,
			"name":"Heart Atrium",
			"normalTexture":{
				"index":0
			},
			"pbrMetallicRoughness":{
				"baseColorTexture":{
					"index":1
				},
				"metallicFactor":0,
				"roughnessFactor":0
			}
		},
		{
			"doubleSided":true,
			"extensions":{
				"KHR_materials_clearcoat":{
					"clearcoatFactor":0.625,
					"clearcoatRoughnessFactor":0.029999999329447746
				},
				"KHR_materials_specular":{
					"specularColorFactor":[
						0.8407540388879989,
						0.8407540388879989,
						0.8407540388879989
					]
				},
				"KHR_materials_ior":{
					"ior":1.4500000476837158
				}
			},
			"name":"Material.001",
			"normalTexture":{
				"index":2
			},
			"pbrMetallicRoughness":{
				"baseColorTexture":{
					"index":3
				},
				"metallicFactor":0,
				"roughnessFactor":0.09999999403953552
			}
		}
	],
	"meshes":[
		{
			"name":"BSurfaceMesh.001",
			"primitives":[
				{
					"attributes":{
						"POSITION":0,
						"NORMAL":1,
						"TEXCOORD_0":2
					},
					"indices":3,
					"material":0
				},
				{
					"attributes":{
						"POSITION":4,
						"NORMAL":5,
						"TEXCOORD_0":6
					},
					"indices":7,
					"material":1
				}
			]
		}
	],
	"textures":[
		{
			"sampler":0,
			"source":0
		},
		{
			"sampler":1,
			"source":0
		},
		{
			"sampler":0,
			"source":1
		},
		{
			"sampler":1,
			"source":1
		}
	],
	"images":[
		{
			"mimeType":"image/png",
			"name":"Atriums Base",
			"uri":"Atriums%20Base.png"
		},
		{
			"mimeType":"image/png",
			"name":"Ventricals Base",
			"uri":"Ventricals%20Base.png"
		}
	],
	"accessors":[
		{
			"bufferView":0,
			"componentType":5126,
			"count":471,
			"max":[
				0.5927318930625916,
				0.9600599408149719,
				0.6658817529678345
			],
			"min":[
				-0.6771610975265503,
				-0.9418085217475891,
				-0.7045215964317322
			],
			"type":"VEC3"
		},
		{
			"bufferView":1,
			"componentType":5126,
			"count":471,
			"type":"VEC3"
		},
		{
			"bufferView":2,
			"componentType":5126,
			"count":471,
			"type":"VEC2"
		},
		{
			"bufferView":3,
			"componentType":5123,
			"count":2145,
			"type":"SCALAR"
		},
		{
			"bufferView":4,
			"componentType":5126,
			"count":363,
			"max":[
				0.9800360202789307,
				0.3676809072494507,
				0.7631953358650208
			],
			"min":[
				-0.6415323615074158,
				-1.262436866760254,
				-0.5929075479507446
			],
			"type":"VEC3"
		},
		{
			"bufferView":5,
			"componentType":5126,
			"count":363,
			"type":"VEC3"
		},
		{
			"bufferView":6,
			"componentType":5126,
			"count":363,
			"type":"VEC2"
		},
		{
			"bufferView":7,
			"componentType":5123,
			"count":1632,
			"type":"SCALAR"
		}
	],
	"bufferViews":[
		{
			"buffer":0,
			"byteLength":5652,
			"byteOffset":0,
			"target":34962
		},
		{
			"buffer":0,
			"byteLength":5652,
			"byteOffset":5652,
			"target":34962
		},
		{
			"buffer":0,
			"byteLength":3768,
			"byteOffset":11304,
			"target":34962
		},
		{
			"buffer":0,
			"byteLength":4290,
			"byteOffset":15072,
			"target":34963
		},
		{
			"buffer":0,
			"byteLength":4356,
			"byteOffset":19364,
			"target":34962
		},
		{
			"buffer":0,
			"byteLength":4356,
			"byteOffset":23720,
			"target":34962
		},
		{
			"buffer":0,
			"byteLength":2904,
			"byteOffset":28076,
			"target":34962
		},
		{
			"buffer":0,
			"byteLength":3264,
			"byteOffset":30980,
			"target":34963
		}
	],
	"samplers":[
		{
			"magFilter":9729,
			"minFilter":9987
		},
		{
			"magFilter":9728,
			"minFilter":9984
		}
	],
	"buffers":[
		{
			"byteLength":34244,
			"uri":"heart.bin"
		}
	]
}
